<?xml version="1.0" standalone="no"?>
<!DOCTYPE svg PUBLIC "-//W3C//DTD SVG 20010904//EN"
 "http://www.w3.org/TR/2001/REC-SVG-20010904/DTD/svg10.dtd">
<svg version="1.0" xmlns="http://www.w3.org/2000/svg"
 width="1254.000000pt" height="1254.000000pt" viewBox="0 0 1254.000000 1254.000000"
 preserveAspectRatio="xMidYMid meet">

<g transform="translate(0.000000,1254.000000) scale(0.100000,-0.100000)"
fill="#000000" stroke="none">
<path d="M4520 10369 c-317 -39 -599 -207 -764 -458 -106 -160 -157 -303 -176
-498 -5 -54 -11 -578 -12 -1173 l-3 -1075 23 -85 c83 -308 308 -550 592 -639
98 -30 160 -40 330 -51 95 -6 186 -18 235 -31 315 -82 575 -325 673 -629 36
-109 42 -148 52 -342 8 -138 17 -212 34 -282 83 -326 329 -574 664 -669 77
-22 83 -22 1142 -25 1156 -4 1166 -3 1320 50 320 112 571 422 651 803 16 75
16 309 0 394 -70 364 -326 645 -696 758 l-90 28 -1085 0 -1085 0 -84 23 c-118
33 -188 62 -271 116 -177 115 -297 282 -351 491 -28 110 -28 103 -11 1430 9
695 9 982 1 1040 -55 404 -369 739 -760 809 -114 20 -239 26 -329 15z"/>
<path d="M3877 3316 c-50 -18 -62 -30 -86 -80 -29 -59 -30 -260 -2 -322 54
-120 236 -127 301 -12 18 32 25 62 28 125 8 153 -13 226 -78 275 -34 25 -115
32 -163 14z m136 -86 c42 -50 50 -227 13 -298 -31 -60 -118 -66 -159 -10 -23
31 -34 142 -22 233 9 76 37 105 99 105 37 0 48 -5 69 -30z"/>
<path d="M4513 3319 c-50 -15 -101 -81 -108 -144 -12 -95 -2 -226 21 -270 55
-108 239 -112 293 -6 16 30 21 59 21 116 l0 76 -77 -3 -78 -3 -3 -32 c-3 -33
-3 -33 42 -33 l46 0 0 -39 c0 -54 -32 -91 -85 -98 -59 -7 -90 21 -106 95 -14
69 -6 200 15 241 18 34 33 41 87 41 44 0 74 -24 85 -65 5 -21 12 -25 41 -25
35 0 36 1 30 35 -15 95 -115 146 -224 114z"/>
<path d="M5148 3319 c-80 -23 -118 -105 -118 -253 0 -128 38 -207 113 -235 82
-31 178 6 216 83 22 44 25 63 25 161 0 98 -3 117 -25 161 -14 28 -37 56 -55
66 -39 23 -108 30 -156 17z m114 -70 c33 -18 48 -70 48 -174 0 -105 -14 -152
-51 -179 -44 -31 -114 -11 -137 39 -19 42 -26 164 -13 225 15 71 42 100 93
100 22 0 48 -5 60 -11z"/>
<path d="M9613 3319 c-52 -15 -83 -61 -83 -124 0 -72 26 -103 122 -140 40 -15
83 -37 96 -48 27 -25 29 -67 3 -98 -16 -20 -29 -24 -71 -24 -42 0 -55 4 -71
24 -10 13 -19 32 -19 42 0 15 -7 19 -35 19 -31 0 -35 -3 -35 -25 0 -98 135
-156 246 -106 47 21 74 68 74 128 0 74 -32 103 -170 157 -59 23 -78 51 -66 99
16 64 156 51 156 -15 0 -14 8 -18 35 -18 29 0 35 4 35 20 0 85 -110 140 -217
109z"/>
<path d="M3240 3075 l0 -245 140 0 140 0 0 30 0 30 -105 0 -105 0 0 215 0 215
-35 0 -35 0 0 -245z"/>
<path d="M5690 3075 l0 -245 35 0 35 0 0 98 c0 54 2 101 4 103 3 3 23 3 46 1
40 -4 41 -5 93 -103 52 -99 52 -99 90 -99 21 0 37 3 35 8 -2 4 -25 50 -52 102
l-48 95 41 42 c39 39 41 44 41 100 0 46 -5 67 -21 87 -37 47 -68 56 -189 56
l-110 0 0 -245z m231 156 c25 -30 24 -72 -2 -105 -19 -24 -27 -26 -90 -26
l-69 0 0 73 c0 41 3 77 8 81 4 4 36 6 71 4 52 -3 67 -8 82 -27z"/>
<path d="M6336 3312 c-4 -6 -3 -76 3 -429 l1 -53 35 0 35 0 0 110 0 110 95 0
95 0 0 -110 0 -110 35 0 35 0 0 245 0 245 -35 0 -35 0 0 -105 0 -105 -95 0
-95 0 0 105 0 105 -34 0 c-19 0 -37 -3 -40 -8z"/>
<path d="M7024 3176 l76 -143 0 -102 0 -101 35 0 35 0 0 105 0 106 70 133 c39
73 70 136 70 140 0 4 -16 6 -36 4 -35 -3 -38 -7 -89 -102 l-53 -99 -51 101
-51 102 -41 0 -40 0 75 -144z"/>
<path d="M7567 3313 c-4 -3 -7 -17 -7 -30 0 -22 4 -23 65 -23 l65 0 0 -215 0
-215 35 0 35 0 0 215 0 215 65 0 65 0 0 30 0 30 -158 0 c-87 0 -162 -3 -165
-7z"/>
<path d="M8180 3075 l0 -245 35 0 35 0 0 110 0 110 95 0 95 0 0 -110 0 -110
34 0 34 0 7 133 c4 72 5 182 3 242 l-3 110 -37 3 -38 3 0 -105 0 -106 -95 0
-95 0 0 105 0 105 -35 0 -35 0 0 -245z"/>
<path d="M8840 3074 l0 -245 33 3 32 3 3 160 3 160 48 -115 c46 -107 51 -115
76 -115 26 0 31 8 73 113 25 61 48 112 51 112 4 0 6 -71 6 -157 l0 -158 33 -3
32 -3 0 246 0 246 -37 -3 -38 -3 -57 -135 c-31 -74 -59 -139 -61 -144 -2 -5
-30 57 -63 137 l-59 147 -37 0 -38 0 0 -246z"/>
</g>
</svg>
